HIERARCHY
ROOT Hips
{
  OFFSET 107.172 60.3515 365.92
  CHANNELS 6 Xposition Yposition Zposition Zrotation Xrotation Yrotation
  JOINT LeftUpLeg
  {
    OFFSET 8.9458 -8.66707 0.101652
    CHANNELS 3 Zrotation Xrotation Yrotation
    JOINT LeftLeg
    {
      OFFSET 0 -44.4227 1.3727
      CHANNELS 3 Zrotation Xrotation Yrotation
      JOINT LeftFoot
      {
        OFFSET -0.253549 -42.0924 -1.46059
        CHANNELS 3 Zrotation Xrotation Yrotation
        JOINT LeftToes
        {
          OFFSET -0.04 -4.41509 8.4991
          CHANNELS 3 Zrotation Xrotation Yrotation
          End Site
          {
            OFFSET 0.08 -0.047448 9.77979
          }
        }
      }
    }
  }
  JOINT RightUpLeg
  {
    OFFSET -8.9458 -8.66707 0.101652
    CHANNELS 3 Zrotation Xrotation Yrotation
    JOINT RightLeg
    {
      OFFSET 0 -44.4227 1.3727
      CHANNELS 3 Zrotation Xrotation Yrotation
      JOINT RightFoot
      {
        OFFSET 0.253549 -42.0924 -1.46059
        CHANNELS 3 Zrotation Xrotation Yrotation
        JOINT RightToes
        {
          OFFSET 0.04 -4.41509 8.4991
          CHANNELS 3 Zrotation Xrotation Yrotation
          End Site
          {
            OFFSET -0.08 -0.137448 9.77979
          }
        }
      }
    }
  }
  JOINT Spine
  {
    OFFSET 0 11.8905 0
    CHANNELS 3 Zrotation Xrotation Yrotation
    JOINT Spine1
    {
      OFFSET 0 25.6574 0.127663
      CHANNELS 3 Zrotation Xrotation Yrotation
      JOINT HEad
      {
        OFFSET 0 8.73416 0.011341
        CHANNELS 3 Zrotation Xrotation Yrotation
        End Site
        {
          OFFSET -0.29 12.7742 2.51395
        }
      }
      JOINT LeftShoulder1
      {
        OFFSET 8.99 -0.362252 -0.22
        CHANNELS 3 Zrotation Xrotation Yrotation
        JOINT LeftArm
        {
          OFFSET 10.2827 -0.00338 0.322123
          CHANNELS 3 Zrotation Xrotation Yrotation
          JOINT LeftForeArm
          {
            OFFSET 32.7669 0.099144 -1.42434
            CHANNELS 3 Zrotation Xrotation Yrotation
            JOINT LeftHand
            {
              OFFSET 27.5643 0.085362 1.02216
              CHANNELS 3 Zrotation Xrotation Yrotation
              End Site
              {
                OFFSET 16.7443 -0.6 1.50291
              }
            }
          }
        }
      }
      JOINT RightShoulder
      {
        OFFSET -8.99 -0.362252 -0.22
        CHANNELS 3 Zrotation Xrotation Yrotation
        JOINT RightArm
        {
          OFFSET -10.2827 -0.00338 0.322123
          CHANNELS 3 Zrotation Xrotation Yrotation
          JOINT RightForeArm
          {
            OFFSET -32.8971 0.099144 -1.42434
            CHANNELS 3 Zrotation Xrotation Yrotation
            JOINT RightHand
            {
              OFFSET -27.4921 0.085362 1.02216
              CHANNELS 3 Zrotation Xrotation Yrotation
              End Site
              {
                OFFSET -16.6312 -0.6 1.50291
              }
            }
          }
        }
      }
    }
  }
}
MOTION
Frames:	18
Frame Time:	0.0166667
-29.412	61.1266	33.559	16.6481	38.7631	151.911	-32.3231	-38.1615	-11.895	104.548	77.6841	-120.912	-9.79315	-3.91398	-10.1313	1.43E-14	3.18E-14	3.18E-15	-96.356	-61.0076	-87.5716	113.915	48.29	-112.508	9.03418	5.32147	-20.9758	4.62E-02	5.34E-04	6.63E-01	-0.353786	0.560498	-0.179342	-0.70591	1.11609	-0.355488	9.61422	35.5665	62.19	6.36E-15	6.36E-15	0.00E+00	-64.939	52.7125	-27.8663	-71.8434	-8.6676	-72.3064	-42.4331	-7.99328	13.1001	6.36E-15	6.36E-15	0	70.2261	68.8868	35.1652	5.00994	5.66586	80.1064	3.11E+01	1.32E+00	-6.63E+00
-29.434	61.0207	33.654	16.7404	38.7216	151.868	-32.2866	-38.3014	-11.9355	104.897	77.6104	-121.378	-9.81422	-3.99094	-10.0055	1.27E-14	3.26E-14	3.18E-15	-97.1027	-61.9331	-87.8437	113.904	48.652	-112.531	9.0864	5.97578	-21.0314	4.62E-02	5.34E-04	6.63E-01	-0.324524	0.561571	-0.179776	-0.64734	1.12539	-0.356617	9.64965	35.5382	62.1435	-7.06E-31	6.36E-15	6.36E-15	-64.8585	52.7437	-27.9296	-71.7776	-8.65822	-72.3002	-42.4215	-7.99031	13.054	-7.06E-31	6.36E-15	6.36E-15	70.3367	68.8079	35.0705	5.03294	5.70296	80.0983	3.12E+01	1.33E+00	-6.64E+00
-29.446	60.9068	33.716	16.7356	38.6808	151.846	-32.2815	-38.5145	-12.0813	105.635	77.7279	-122.238	-9.74968	-4.00116	-9.95437	1.59E-14	3.10E-14	9.54E-15	-98.0332	-62.8068	-88.3405	113.894	49.0149	-112.586	8.95561	6.12517	-21.2686	4.62E-02	5.34E-04	6.63E-01	-0.31512	0.563061	-0.172522	-0.62859	1.12984	-0.34219	9.66786	35.4792	62.1377	-1.59E-15	6.36E-15	-3.18E-15	-64.7768	52.7448	-27.9774	-71.725	-8.63934	-72.2879	-42.4075	-7.98261	13.0245	-1.59E-15	6.36E-15	-3.18E-15	70.4657	68.7592	34.9688	5.02564	5.74813	80.0989	3.12E+01	1.34E+00	-6.64E+00
-29.45	60.7818	33.762	16.6653	38.6433	151.881	-32.308	-38.7529	-12.3439	106.638	77.9928	-123.312	-9.69541	-4.00312	-9.89397	1.59E-14	3.06E-14	9.54E-15	-98.9393	-63.5246	-88.8594	113.89	49.3365	-112.635	8.77772	6.19053	-21.2851	4.62E-02	5.34E-04	6.63E-01	-0.314109	0.565638	-0.167796	-0.626609	1.13496	-0.332733	9.67416	35.4012	62.1389	1.59E-15	6.36E-15	-3.18E-15	-64.69	52.7306	-28.0284	-71.7001	-8.61386	-72.2625	-42.3583	-7.99901	13.0019	1.59E-15	6.36E-15	-3.18E-15	70.584	68.7107	34.8669	5.01322	5.79375	80.1004	3.12E+01	1.34E+00	-6.64E+00
-29.461	60.6571	33.785	16.5507	38.6459	151.957	-32.3389	-38.9566	-12.5127	107.476	78.2277	-124.171	-9.65366	-3.98355	-9.96835	1.43E-14	3.10E-14	6.36E-15	-99.6669	-64.0991	-89.238	113.869	49.6264	-112.598	8.60644	6.27033	-21.1345	4.62E-02	5.34E-04	6.63E-01	-0.325229	0.572579	-0.164219	-0.648801	1.14887	-0.329829	9.67983	35.3432	62.1358	3.18E-15	6.36E-15	0.00E+00	-64.6234	52.7363	-28.059	-71.7185	-8.59676	-72.2322	-42.267	-8.09367	13.003	3.18E-15	6.36E-15	0	70.6589	68.6743	34.7988	5.01756	5.81598	80.1077	3.11E+01	1.35E+00	-6.63E+00
-29.467	60.5425	33.793	16.3909	38.6555	152.07	-32.4039	-39.1323	-12.5549	108.124	78.3516	-124.839	-9.64794	-4.03206	-10.0069	1.27E-14	3.14E-14	9.54E-15	-100.283	-64.5728	-89.5061	113.778	49.8465	-112.523	8.43987	6.29462	-20.973	4.62E-02	5.34E-04	6.63E-01	-0.34876	0.578502	-0.161191	-0.695819	1.16078	-0.327512	9.70251	35.2914	62.1247	-1.59E-15	0.00E+00	0.00E+00	-64.5575	52.7543	-28.0835	-71.7685	-8.59208	-72.2075	-42.1207	-8.29485	13.0536	-1.59E-15	0	0	70.6787	68.6429	34.7942	5.0334	5.8192	80.1178	3.11E+01	1.37E+00	-6.63E+00
-29.481	60.442	33.768	16.2977	38.6677	152.122	-32.3892	-39.2561	-12.4205	108.493	78.3645	-125.255	-9.59186	-4.07558	-10.1325	1.11E-14	3.14E-14	6.36E-15	-100.656	-65.0091	-89.629	113.635	50.0271	-112.486	8.37676	6.41452	-20.7739	4.62E-02	5.34E-04	6.63E-01	-0.359699	0.588558	-0.158555	-0.717827	1.18088	-0.313653	9.73716	35.2651	62.1181	0.00E+00	9.54E-15	0.00E+00	-64.5016	52.7734	-28.0752	-71.8319	-8.58808	-72.1845	-42.015	-8.47014	13.1318	0	9.54E-15	0	70.7478	68.6194	34.7517	5.05786	5.82803	80.1255	3.11E+01	1.38E+00	-6.62E+00
-29.496	60.3649	33.735	16.212	38.7112	152.176	-32.4036	-39.2998	-12.0943	108.473	78.2153	-125.264	-9.57096	-4.13688	-10.1341	1.27E-14	3.10E-14	1.59E-14	-100.803	-65.3718	-89.6137	113.49	50.2149	-112.441	8.2679	6.35143	-20.8335	4.62E-02	5.34E-04	6.63E-01	-0.374507	0.598837	-0.156653	-0.747439	1.20146	-0.309629	9.77202	35.2693	62.1167	-6.36E-15	0.00E+00	3.18E-15	-64.4553	52.7779	-28.0394	-71.8876	-8.58205	-72.1601	-41.953	-8.56994	13.19	-6.36E-15	0	3.18E-15	70.9259	68.6062	34.6181	5.0738	5.85579	80.1204	3.11E+01	1.39E+00	-6.62E+00
-29.523	60.3088	33.658	16.167	38.7073	152.179	-32.4161	-39.3607	-11.7681	108.48	78.014	-125.291	-9.51005	-4.19438	-10.0904	1.59E-14	3.18E-14	6.36E-15	-100.752	-65.7042	-89.55	113.352	50.3657	-112.446	8.25424	6.47543	-20.7296	4.62E-02	5.34E-04	6.63E-01	-0.370529	0.604888	-0.147458	-0.739564	1.2135	-0.291242	9.80812	35.2882	62.1223	-9.54E-15	3.18E-15	-3.18E-15	-64.4054	52.7526	-27.9998	-71.9444	-8.56742	-72.1327	-41.9509	-8.56822	13.1878	-9.54E-15	3.18E-15	-3.18E-15	71.1635	68.6075	34.4361	5.06859	5.89938	80.1105	3.10E+01	1.38E+00	-6.62E+00
-29.548	60.2595	33.571	16.1293	38.6903	152.191	-32.4513	-39.4293	-11.5856	108.725	77.9004	-125.528	-9.4735	-4.21827	-10.1127	1.27E-14	3.26E-14	3.18E-15	-100.529	-65.9785	-89.3961	113.208	50.4701	-112.458	8.20301	6.5722	-20.6107	4.62E-02	5.34E-04	6.63E-01	-0.360103	0.605211	-0.139816	-0.718796	1.21243	-0.276069	9.85144	35.3277	62.1094	1.59E-15	3.18E-15	-3.18E-15	-64.3688	52.6988	-27.9473	-71.9752	-8.52501	-72.1009	-41.9918	-8.50524	13.1402	1.59E-15	3.18E-15	-3.18E-15	71.4065	68.6135	34.246	5.05417	5.94782	80.0983	3.10E+01	1.38E+00	-6.62E+00
-29.567	60.2147	33.488	16.1124	38.7095	152.227	-32.4756	-39.4663	-11.4859	109.108	77.863	-125.882	-9.45888	-4.21235	-10.0745	1.59E-14	3.34E-14	3.18E-15	-100.054	-66.1629	-88.9769	113.033	50.4908	-112.435	8.07817	6.52774	-20.5502	4.62E-02	5.34E-04	6.63E-01	-0.34775	0.603439	-0.141041	-0.69406	1.21421	-0.278646	9.90485	35.4085	62.0706	-4.77E-15	3.18E-15	-3.18E-15	-64.38	52.6456	-27.8589	-71.9667	-8.47357	-72.0658	-42.0431	-8.4239	13.0917	-4.77E-15	3.18E-15	-3.18E-15	71.5848	68.6308	34.1022	5.05306	5.97502	80.0933	3.10E+01	1.37E+00	-6.63E+00
-29.578	60.1783	33.405	16.0937	38.7071	152.261	-32.4288	-39.5322	-11.4662	109.587	77.931	-126.337	-9.44209	-4.15469	-10.3139	1.43E-14	3.26E-14	6.36E-15	-99.5292	-66.2961	-88.4916	112.801	50.4484	-112.377	7.97486	6.4569	-20.4709	4.62E-02	5.34E-04	6.63E-01	-0.335637	0.604193	-0.141062	-0.669862	1.21198	-0.277629	9.97507	35.4778	62.0196	-1.59E-15	9.54E-15	0.00E+00	-64.3829	52.5895	-27.7916	-71.924	-8.42362	-72.0401	-42.0863	-8.3529	13.0435	-1.59E-15	9.54E-15	0	71.6057	68.6574	34.1243	5.06357	5.97411	80.0899	3.11E+01	1.36E+00	-6.63E+00
-29.576	60.147	33.354	16.0917	38.7401	152.315	-32.379	-39.5333	-11.457	109.946	78.0176	-126.663	-9.4642	-4.11705	-10.4398	1.59E-14	3.18E-14	6.36E-15	-98.8854	-66.4051	-87.8742	112.522	50.42	-112.246	7.9308	6.34324	-20.4833	4.62E-02	5.34E-04	6.63E-01	-0.327816	0.611539	-0.140483	-0.654201	1.22665	-0.277076	10.0787	35.5566	61.9209	3.18E-15	3.18E-15	-3.18E-15	-64.3649	52.5837	-27.7622	-71.8681	-8.39405	-72.0349	-42.1269	-8.29823	12.9985	3.18E-15	3.18E-15	-3.18E-15	71.6189	68.6759	34.1502	5.0564	5.95598	80.0919	3.11E+01	1.36E+00	-6.64E+00
-29.579	60.1263	33.298	16.0899	38.768	152.347	-32.3457	-39.5345	-11.4236	110.212	78.0632	-126.918	-9.47286	-4.07739	-10.5158	1.27E-14	3.26E-14	6.36E-15	-98.2627	-66.5756	-87.3365	112.231	50.4766	-112.061	7.9651	6.19592	-20.5944	4.62E-02	5.34E-04	6.63E-01	-0.323536	0.616713	-0.139751	-0.645541	1.237	-0.281508	10.1636	35.6495	61.8621	-3.18E-15	3.18E-15	0.00E+00	-64.34	52.5599	-27.7383	-71.8192	-8.38551	-72.0465	-42.1544	-8.26178	12.9595	-3.18E-15	3.18E-15	0	71.5714	68.7495	34.2472	5.04264	5.92283	80.0901	3.11E+01	1.35E+00	-6.64E+00
-29.58	60.1085	33.246	16.097	38.7987	152.365	-32.334	-39.5204	-11.4005	110.494	78.0892	-127.22	-9.47812	-4.05259	-10.6167	1.59E-14	3.18E-14	6.36E-15	-97.6733	-66.7896	-86.8499	111.967	50.5736	-111.926	8.04332	6.04704	-20.6739	4.62E-02	5.34E-04	6.63E-01	-0.317787	0.625147	-0.139315	-0.634233	1.25381	-0.268035	10.2567	35.7279	61.7661	0.00E+00	0.00E+00	3.18E-15	-64.2888	52.553	-27.7667	-71.7931	-8.38251	-72.0505	-42.1755	-8.23318	12.9261	0	0	3.18E-15	71.4972	68.7914	34.3531	5.05368	5.88145	80.0832	3.11E+01	1.35E+00	-6.65E+00
-29.582	60.0941	33.207	16.1154	38.8724	152.394	-32.3405	-39.4476	-11.4037	110.738	78.1334	-127.497	-9.4768	-4.04959	-10.6228	1.43E-14	3.18E-14	6.36E-15	-97.0202	-66.9912	-86.2413	111.747	50.6459	-111.857	8.16679	6.02131	-20.5659	4.62E-02	5.34E-04	6.63E-01	-0.316392	0.637212	-0.139625	-0.627878	1.27796	-0.275993	10.3141	35.8379	61.702	7.06E-31	-6.36E-15	6.36E-15	-64.2887	52.5182	-27.7322	-71.7753	-8.36283	-72.0312	-42.1931	-8.20706	12.9028	7.06E-31	-6.36E-15	6.36E-15	71.4534	68.8435	34.4045	5.08197	5.84788	80.0763	3.11E+01	1.35E+00	-6.65E+00
-29.581	60.0878	33.176	16.125	38.9351	152.44	-32.3469	-39.3696	-11.4417	110.917	78.1953	-127.704	-9.47573	-4.05595	-10.639	1.11E-14	3.26E-14	6.36E-15	-96.411	-67.1647	-85.5949	111.528	50.6641	-111.804	8.22851	5.99544	-20.4162	4.62E-02	5.34E-04	6.63E-01	-0.316734	0.645962	-0.141571	-0.623964	1.29547	-0.279853	10.3576	35.9366	61.6294	4.77E-15	6.36E-15	3.18E-15	-64.3128	52.5128	-27.7023	-71.7061	-8.33431	-72.0078	-42.2148	-8.21266	12.8867	4.77E-15	6.36E-15	3.18E-15	71.4259	68.8509	34.4189	5.10969	5.83174	80.0731	3.11E+01	1.34E+00	-6.65E+00
-29.573	60.0849	33.159	16.1433	38.9909	152.502	-32.3364	-39.2872	-11.4476	111.036	78.2197	-127.817	-9.47199	-4.06444	-10.6674	1.27E-14	3.10E-14	3.18E-15	-95.8271	-67.319	-84.9665	111.309	50.7032	-111.727	8.25271	5.98759	-20.3394	4.62E-02	5.34E-04	6.63E-01	-0.318094	0.654062	-0.150307	-0.623215	1.31171	-0.297294	10.3928	36.0246	61.5612	4.77E-15	0.00E+00	3.18E-15	-64.3646	52.5443	-27.6567	-71.5944	-8.31567	-71.989	-42.2371	-8.22885	12.8843	4.77E-15	0	3.18E-15	71.47	68.8206	34.3534	5.12709	5.84867	80.077	3.11E+01	1.34E+00	-6.65E+00
